<svg version="1.2" baseProfile="tiny" xmlns="http://www.w3.org/2000/svg" width="187" height="87"><rect fill="#3AA0D3" width="187" height="87"/><g fill="#fff"><path d="M34.96 27.939v21.076c0 1.268.174 2.096.503 2.505.354.383 1.064.576 2.164.576h.195v.945h-8.531v-.945h.269c1.06 0 1.751-.193 2.074-.576.339-.409.491-1.237.491-2.505v-14.335c0-1.474-.091-2.408-.308-2.799-.191-.391-.748-.8-1.654-1.19l-.872-.37v-.247l5.669-2.135z"/><path fill-rule="evenodd" d="M44.159 35.599v13.417c0 1.26.156 2.085.503 2.492.329.394 1.028.589 2.096.589h.246v.945h-8.531v-.945h.308c1.045 0 1.729-.193 2.053-.576.321-.409.489-1.237.49-2.505v-6.703c0-1.527-.1-2.468-.284-2.823-.177-.345-.76-.761-1.767-1.213l-.8-.38v-.235l5.686-2.063zm-1.93-2.21c-.568 0-1.053-.191-1.437-.574-.384-.384-.575-.87-.575-1.438 0-.561.191-1.025.575-1.426.384-.391.868-.586 1.437-.586s1.053.195 1.437.586c.384.401.576.866.576 1.426 0 .568-.192 1.054-.576 1.438-.384.383-.868.574-1.437.574z"/><path d="M54.721 53.52l-6.491-13.528c-.661-1.282-1.156-2.108-1.486-2.476-.33-.376-.757-.564-1.264-.564h-.235v-.945h7.095v.945h-.27c-.999 0-1.498.25-1.498.75 0 .329.272 1.087.834 2.27l4.578 9.619 4.002-9.608c.438-1.015.648-1.709.648-2.085 0-.63-.536-.945-1.643-.945h-.257v-.945h5.695v.945h-.234c-.484 0-.895.207-1.264.638-.361.43-.795 1.216-1.302 2.393l-5.891 13.536h-1.017z"/><path fill-rule="evenodd" d="M77.742 50.168v1.436c-2.236 1.284-4.391 1.916-6.496 1.916-2.519 0-4.594-.852-6.222-2.543-1.629-1.688-2.443-3.836-2.443-6.439 0-2.597.788-4.74 2.348-6.445 1.551-1.705 3.521-2.566 5.864-2.566 2.121 0 3.761.695 4.937 2.084 1.168 1.408 1.767 3.351 1.768 5.831v.493h-11.686c-.024.353-.028.58-.028.71 0 1.983.627 3.632 1.879 4.985 1.253 1.331 2.807 2.002 4.651 2.002 1.784 0 3.577-.489 5.428-1.464zm-11.869-7.179h3.153c2.274 0 3.714-.115 4.321-.331.599-.237.907-.791.907-1.659 0-1.329-.328-2.412-.996-3.264-.652-.837-1.509-1.265-2.539-1.265-1.29 0-2.369.601-3.252 1.766-.876 1.177-1.402 2.755-1.594 4.753z"/><path d="M91.683 53.52l-4.64-13.438c-.7-2.097-1.373-3.13-2.003-3.13h-.194v-.945h6.518v.945h-.212c-1.098 0-1.655.33-1.655 1.006 0 .185.051.425.135.71.107.354.165.553.173.615l.219.811 3.158 9.107 4.617-13.195h.974l5.477 13.266 2.785-9.179c.311-.999.456-1.729.458-2.176 0-.645-.462-.967-1.352-.967h-.233v-.945h4.736v.945h-.232c-.753 0-1.466 1.037-2.125 3.143l-4.211 13.426h-.967l-5.568-13.683-4.853 13.684h-1.005z"/><path fill-rule="evenodd" d="M117.92 53.52c-2.512 0-4.596-.852-6.224-2.543-1.597-1.688-2.419-3.84-2.419-6.467 0-2.604.822-4.767 2.419-6.458 1.628-1.673 3.712-2.526 6.224-2.527 2.52 0 4.575.854 6.196 2.527 1.626 1.691 2.458 3.854 2.458 6.458 0 2.626-.832 4.778-2.458 6.467-1.621 1.691-3.677 2.543-6.196 2.543zm0-1.066c1.551 0 2.811-.733 3.779-2.187.971-1.452 1.422-3.375 1.424-5.758 0-2.358-.453-4.279-1.424-5.73-.969-1.453-2.229-2.186-3.779-2.186-1.573 0-2.829.733-3.768 2.186-.967 1.451-1.45 3.372-1.45 5.73 0 2.382.483 4.306 1.45 5.758.939 1.454 2.195 2.187 3.768 2.187z"/><path d="M132.104 40.288v8.728c0 1.268.174 2.092.561 2.492.422.384 1.236.576 2.502.576h.235v.958h-9.09v-.945h.269c1.114 0 1.813-.193 2.156-.576.356-.409.515-1.237.515-2.505v-6.703c0-1.505-.106-2.453-.289-2.846-.216-.415-.776-.807-1.745-1.19l-.905-.38v-.235l5.792-2.062v3.365c1.05-1.146 2.034-2.009 2.916-2.577.892-.569 1.717-.861 2.406-.862 1.307 0 2.355.661 3.209 1.95l-2.327 2.506c-.759-1.314-1.571-1.963-2.503-1.963-.791 0-1.925.656-3.397 2.001l-.305.268z"/><path fill-rule="evenodd" d="M145.154 43.441v5.575c0 1.26.16 2.085.515 2.492.355.394 1.052.589 2.157.589h.158v.945h-8.531v-.945h.302c1.043 0 1.751-.193 2.056-.576.339-.409.493-1.237.493-2.505v-14.425c0-1.396-.113-2.315-.303-2.722-.216-.431-.741-.818-1.61-1.179l-.938-.37v-.247l5.701-2.135v15.53l4.573-3.892c1.354-1.128 2.021-1.855 2.068-2.163.016-.315-.44-.464-1.329-.464h-.237v-.945h6.039v.945h-.257c-.747 0-2.259.945-4.54 2.834l-3.39 2.812 5.659 6.406c1.846 2.067 3.148 3.093 3.979 3.093h.192v.945h-4.206l-8.551-9.598z"/><polygon points="80.227,27.672 82.949,27.672 82.949,57.671 80.227,57.671 80.227,27.672"/></g></svg>